<?xml version="1.0" encoding="utf-8"?>
<!-- Generator: Adobe Illustrator 15.1.0, SVG Export Plug-In  -->
<!DOCTYPE svg PUBLIC "-//W3C//DTD SVG 1.1//EN" "http://www.w3.org/Graphics/SVG/1.1/DTD/svg11.dtd" [
	<!ENTITY ns_flows "http://ns.adobe.com/Flows/1.0/">
]>
<svg version="1.1"
	 xmlns="http://www.w3.org/2000/svg" xmlns:xlink="http://www.w3.org/1999/xlink" xmlns:a="http://ns.adobe.com/AdobeSVGViewerExtensions/3.0/"
	 x="0px" y="0px" width="48px" height="48px" viewBox="0 0 48 48" overflow="visible" enable-background="new 0 0 48 48"
	 xml:space="preserve">
<defs>
</defs>
<g>
	<path fill="#FFFFFF" d="M24.001,46C11.87,46,2,36.131,2,24S11.87,2,24.001,2C36.131,2,46,11.869,46,24S36.131,46,24.001,46z"/>
	<path fill="#FFFFFF" d="M24.001,4C35.044,4,44,12.954,44,24s-8.956,20-19.999,20C12.954,44,4,35.046,4,24S12.954,4,24.001,4
		 M24.001,0C10.767,0,0,10.766,0,24c0,13.233,10.767,24,24.001,24C37.234,48,48,37.233,48,24C48,10.766,37.234,0,24.001,0L24.001,0z
		"/>
</g>
<g>
	<circle cx="24" cy="24" r="20"/>
</g>
<text transform="matrix(1 0 0 1 17.835 29.626)" fill="#FFFFFF" font-family="'HelveticaNeue-Bold'" font-size="18">A</text>
</svg>
